Coordinates
version=1
nRows=10
nColumns=22
inDegrees=yes

Units are S.I. units (second, meters, Newtons, ...)
If the header above contains a line with 'inDegrees', this indicates whether rotational values are in degrees (yes) or radians (no).

endheader
time	pelvis_tilt	pelvis_list	pelvis_rotation	pelvis_tx	pelvis_ty	pelvis_tz	hip_flexion_r	hip_adduction_r	hip_rotation_r	knee_angle_r	ankle_angle_r	subtalar_angle_r	hip_flexion_l	hip_adduction_l	hip_rotation_l	knee_angle_l	ankle_angle_l	subtalar_angle_l	lumbar_extension	lumbar_bending	lumbar_rotation
      1.29000000	     -3.52313309	     -5.05635811	     -3.33140503	      1.08239657	      0.94189383	     -0.27950701	     10.46918147	      6.78794161	     -0.65329295	    -19.44819701	     10.62853581	     -3.56328965	     10.68921876	     -8.61778810	     -8.13488277	    -25.12102578	     13.97011419	     -1.79534660	     -4.92235394	      2.15521439	      1.82803017
      1.30000000	     -3.55981707	     -5.03911523	     -3.46984359	      1.08129461	      0.94181362	     -0.27847968	     10.69412364	      6.85825418	     -0.55674958	    -19.64741453	     10.58729184	     -3.61912787	     10.84307059	     -8.69167666	     -8.20446369	    -25.24968816	     13.91664574	     -1.70362571	     -4.97706816	      2.12831544	      1.86097459
      1.31000000	     -3.59625840	     -5.01771722	     -3.61804348	      1.08009921	      0.94172152	     -0.27737853	     10.92515724	      6.93217177	     -0.44758622	    -19.84704616	     10.54626287	     -3.68633235	     11.00787134	     -8.76374999	     -8.26243820	    -25.39268185	     13.86289378	     -1.62479323	     -5.04458171	      2.09530561	      1.90875654
      1.32000000	     -3.62462917	     -4.99410760	     -3.77161523	      1.07881232	      0.94163151	     -0.27621114	     11.15187446	      7.00973185	     -0.34067454	    -20.04439950	     10.50138076	     -3.75672517	     11.17486991	     -8.83629825	     -8.31223639	    -25.54580135	     13.79611361	     -1.56070190	     -5.13434505	      2.06011460	      1.96505796
      1.33000000	     -3.65132607	     -4.96588399	     -3.93031142	      1.07741389	      0.94152878	     -0.27498081	     11.38515896	      7.08857032	     -0.23152189	    -20.24350387	     10.45477407	     -3.83599585	     11.35945299	     -8.90591549	     -8.34257255	    -25.72249083	     13.72201364	     -1.50390612	     -5.24309933	      2.02003127	      2.03693141
      1.34000000	     -3.67545454	     -4.93414462	     -4.08883105	      1.07590210	      0.94141551	     -0.27369107	     11.62472238	      7.16903326	     -0.12715490	    -20.44516407	     10.40687300	     -3.92396268	     11.56207283	     -8.97241189	     -8.34552618	    -25.92136807	     13.63700477	     -1.45152269	     -5.37289975	      1.97525107	      2.12339370
      1.35000000	     -3.69961121	     -4.89629292	     -4.24753286	      1.07426445	      0.94128633	     -0.27235226	     11.87580921	      7.24666259	     -0.02682987	    -20.65145491	     10.35572080	     -4.02032377	     11.79114625	     -9.03392232	     -8.31924800	    -26.15063861	     13.53595544	     -1.40051288	     -5.52292005	      1.92542537	      2.22327248
      1.36000000	     -3.72447840	     -4.85021108	     -4.39552561	      1.07250667	      0.94114170	     -0.27097383	     12.13723689	      7.31896247	      0.06293469	    -20.86017645	     10.30264605	     -4.12416079	     12.05052055	     -9.08602877	     -8.25389771	    -26.40992253	     13.42142972	     -1.35020889	     -5.69129587	      1.86619237	      2.32856708
      1.37000000	     -3.74831782	     -4.79535425	     -4.52758125	      1.07063288	      0.94098802	     -0.26957322	     12.40752022	      7.38189105	      0.13547995	    -21.07082390	     10.24699529	     -4.22910431	     12.33986581	     -9.12734502	     -8.14673960	    -26.69957377	     13.28453708	     -1.29838052	     -5.87977497	      1.79764507	      2.43718365
      1.38000000	     -3.77496964	     -4.72885903	     -4.63844073	      1.06864924	      0.94082681	     -0.26817140	     12.68734031	      7.43030493	      0.18481616	    -21.27687947	     10.18833419	     -4.32946392	     12.66355674	     -9.15361757	     -7.99800315	    -27.01603354	     13.11554980	     -1.24145658	     -6.08199347	      1.71878978	      2.54553854
